# grassBlade32v.obj
o grassBladeHigh
v -0.1 0.000000 0.0
v  0.1 0.000000 0.0
v -0.1 0.066667 0.0
v  0.1 0.066667 0.0
v -0.1 0.133333 0.0
v  0.1 0.133333 0.0
v -0.1 0.200000 0.0
v  0.1 0.200000 0.0
v -0.1 0.266667 0.0
v  0.1 0.266667 0.0
v -0.1 0.333333 0.0
v  0.1 0.333333 0.0
v -0.1 0.400000 0.0
v  0.1 0.400000 0.0
v -0.1 0.466667 0.0
v  0.1 0.466667 0.0
v -0.1 0.533333 0.0
v  0.1 0.533333 0.0
v -0.1 0.600000 0.0
v  0.1 0.600000 0.0
v -0.1 0.666667 0.0
v  0.1 0.666667 0.0
v -0.1 0.733333 0.0
v  0.1 0.733333 0.0
v -0.1 0.800000 0.0
v  0.1 0.800000 0.0
v -0.1 0.866667 0.0
v  0.1 0.866667 0.0
v -0.1 0.933333 0.0
v  0.1 0.933333 0.0
v -0.1 1.000000 0.0
v  0.1 1.000000 0.0
vn 0.0 0.0 1.0
vt 0.0 0.000000
vt 1.0 0.000000
vt 0.0 0.066667
vt 1.0 0.066667
vt 0.0 0.133333
vt 1.0 0.133333
vt 0.0 0.200000
vt 1.0 0.200000
vt 0.0 0.266667
vt 1.0 0.266667
vt 0.0 0.333333
vt 1.0 0.333333
vt 0.0 0.400000
vt 1.0 0.400000
vt 0.0 0.466667
vt 1.0 0.466667
vt 0.0 0.533333
vt 1.0 0.533333
vt 0.0 0.600000
vt 1.0 0.600000
vt 0.0 0.666667
vt 1.0 0.666667
vt 0.0 0.733333
vt 1.0 0.733333
vt 0.0 0.800000
vt 1.0 0.800000
vt 0.0 0.866667
vt 1.0 0.866667
vt 0.0 0.933333
vt 1.0 0.933333
vt 0.0 1.000000
vt 1.0 1.000000
s 1
usemtl initialShadingGroup.001
f 1/1/1 2/2/1 3/3/1
f 2/2/1 4/4/1 3/3/1
f 3/3/1 4/4/1 5/5/1
f 4/4/1 6/6/1 5/5/1
f 5/5/1 6/6/1 7/7/1
f 6/6/1 8/8/1 7/7/1
f 7/7/1 8/8/1 9/9/1
f 8/8/1 10/10/1 9/9/1
f 9/9/1 10/10/1 11/11/1
f 10/10/1 12/12/1 11/11/1
f 11/11/1 12/12/1 13/13/1
f 12/12/1 14/14/1 13/13/1
f 13/13/1 14/14/1 15/15/1
f 14/14/1 16/16/1 15/15/1
f 15/15/1 16/16/1 17/17/1
f 16/16/1 18/18/1 17/17/1
f 17/17/1 18/18/1 19/19/1
f 18/18/1 20/20/1 19/19/1
f 19/19/1 20/20/1 21/21/1
f 20/20/1 22/22/1 21/21/1
f 21/21/1 22/22/1 23/23/1
f 22/22/1 24/24/1 23/23/1
f 23/23/1 24/24/1 25/25/1
f 24/24/1 26/26/1 25/25/1
f 25/25/1 26/26/1 27/27/1
f 26/26/1 28/28/1 27/27/1
f 27/27/1 28/28/1 29/29/1
f 28/28/1 30/30/1 29/29/1
f 29/29/1 30/30/1 31/31/1
f 30/30/1 32/32/1 31/31/1
