# Blender 4.5.4 LTS
# www.blender.org
mtllib grassBladeHigh.mtl
o grassBladeHigh
v 0.000000 1.000000 -0.000000
v 0.100000 0.000000 0.000000
v -0.100000 0.000000 0.000000
v 0.100000 0.750000 -0.000000
v 0.100000 0.500000 -0.000000
v 0.100000 0.250000 -0.000000
v -0.100000 0.250000 -0.000000
v -0.100000 0.500000 -0.000000
v -0.100000 0.750000 -0.000000
vn -0.0000 -0.0000 1.0000
vt 0.104273 0.000000
vt 0.104273 0.250012
vt 0.000000 0.250012
vt 0.104273 0.500000
vt 0.000000 0.500000
vt 0.104274 0.749988
vt 0.000000 0.749988
vt 0.052137 1.000000
vt 0.000000 0.000000
s 1
usemtl initialShadingGroup.001
f 2/1/1 6/2/1 7/3/1
f 6/2/1 5/4/1 8/5/1
f 5/4/1 4/6/1 9/7/1
f 4/6/1 1/8/1 9/7/1
f 5/4/1 9/7/1 8/5/1
f 6/2/1 8/5/1 7/3/1
f 2/1/1 7/3/1 3/9/1
